<svg xmlns="http://www.w3.org/2000/svg" xmlns:xlink="http://www.w3.org/1999/xlink" version="1.1" x="0px" y="0px" viewBox="0 0 68 85" enable-background="new 0 0 68 68" xml:space="preserve">
  <style>
    .cls-1{fill:#4CAF50;} /* Green color */
    .cls-2{fill:#FFC107;} /* Yellow color */
  </style>
  <g>
    <path class="cls-1" d="M11.435,56.88c0.1799,0.32,0.51,0.52,0.87,0.52h0.0299L24.425,57.08c0.3201-0.01,0.62-0.1801,0.8-0.44   c0.1799-0.27,0.22-0.61,0.1099-0.91L21.165,44.48c-0.13-0.35-0.4399-0.6-0.8-0.65c-0.3699-0.05-0.73,0.11-0.95,0.41l-1.6699,2.31   c-7.6001-4.94-5.3301-11.01-5.2301-11.27c0.1901-0.48-0.0099-1.02-0.46-1.26c-0.4601-0.24-1.02-0.1-1.2999,0.33   c-2.9601,4.44-3.9401,8.54-2.9102,12.2c1.02,3.66,3.78,5.85,5.28,6.8l-1.6499,2.5C11.265,56.16,11.2551,56.56,11.435,56.88z"/>
    <path class="cls-1" d="M55.945,33.99c0.1499,0.08,0.3101,0.11,0.47,0.11c0.3201,0,0.64-0.16,0.8301-0.44c2.96-4.44,3.9399-8.55,2.9099-12.21   c-1.02-3.66-3.78-5.84-5.28-6.79l1.65-2.5c0.2101-0.31,0.2201-0.71,0.04-1.04c-0.1801-0.32-0.55-0.54-0.9-0.51l-12.0901,0.32   c-0.3198,0.01-0.6199,0.17-0.7999,0.44s-0.22,0.6-0.11,0.91l4.1699,11.25c0.1301,0.35,0.4401,0.59,0.8,0.64   c0.3701,0.06,0.73-0.1,0.95-0.4l1.6702-2.31c7.5999,4.9301,5.3398,11,5.23,11.27C55.295,33.21,55.4951,33.75,55.945,33.99z"/>
    <path class="cls-1" d="M20.8301,13.2651c0,1.327,0.9573,1.7464,2.3168,2.1833v-4.1741C21.9152,11.3844,20.8301,12.0288,20.8301,13.2651z"/>
    <path class="cls-1" d="M24.6901,18.8264v4.342c1.2896-0.1329,2.5093-0.778,2.5093-2.0743C27.1994,19.702,26.1408,19.2621,24.6901,18.8264z"/>
    <path class="cls-1" d="M40.165,17.49c0-9.09-7.4-16.49-16.49-16.49c-9.0901,0-16.49,7.4-16.49,16.49s7.3999,16.48,16.49,16.48   C32.765,33.97,40.165,26.58,40.165,17.49z M24.695,25.75v1.74h-1.55v-1.76c-2.2-0.23-4.1799-1.11-5.9299-2.63l1.76-2.1   c1.3499,1.17,2.74,1.87,4.1699,2.1v-4.68c-3.1499-0.76-5.26-1.79-5.26-4.87c0-2.94,2.3-4.7,5.26-4.86v-1.2h1.55v1.23   c1.76,0.13,3.4399,0.73,5.01,1.81l-1.5701,2.22c-1.0601-0.76-2.21-1.23-3.4399-1.4v4.53h0.0699c3.1,0.73,5.38,1.8,5.38,4.98   C30.145,23.91,27.705,25.6,24.695,25.75z"/>
    <path class="cls-1" d="M44.3249,67c9.0901,0,16.4901-7.39,16.4901-16.47c0-9.1-7.4-16.49-16.4901-16.49c-9.0999,0-16.49,7.39-16.49,16.49   C27.8349,59.61,35.225,67,44.3249,67z M34.925,51.78h2.28c-0.05-0.4-0.0801-0.81-0.0801-1.21c0-0.4,0.01-0.7,0.03-0.89h-2.23v-2.17   h2.63c1.1-3.56,4.11-5.9901,7.7899-5.9901c2.6801,0,4.8,0.97,6.3701,2.91l-1.79,2.27c-1.5701-1.67-2.75-2.15-4.5801-2.15   c-1.9099,0-3.6099,1.03-4.3999,2.96h6.02v2.17h-6.55c-0.02,0.21-0.03,0.51-0.03,0.93c0,0.41,0.03,0.8,0.0801,1.17h6.5v2.18H41.145   c0.91,1.75,2.29,2.63,4.12,2.63c1.5,0,2.6801-0.39,4.4-2.15l1.8,2.17c-1.5701,1.94-3.6301,2.91-6.2001,2.91   c-3.5599,0-6.42-2.2-7.58-5.56h-2.76V51.78z"/>
  </g>
</svg>
